<mxfile host="app.diagrams.net" agent="Mozilla/5.0 (Windows NT 10.0; Win64; x64) AppleWebKit/537.36 (KHTML, like Gecko) Chrome/129.0.0.0 Safari/537.36" version="24.7.12">
  <diagram name="Page-1" id="iKhlQT_c42wQWKejstnw">
    <mxGraphModel dx="1687" dy="875" grid="1" gridSize="10" guides="1" tooltips="1" connect="1" arrows="1" fold="1" page="1" pageScale="1" pageWidth="850" pageHeight="1100" math="0" shadow="0">
      <root>
        <mxCell id="0" />
        <mxCell id="1" parent="0" />
        <mxCell id="v8kga1jSf4P2K5tbw9KO-1" value="Core Control Loop" style="ellipse;whiteSpace=wrap;html=1;aspect=fixed;fillColor=#f8cecc;strokeColor=#b85450;" vertex="1" parent="1">
          <mxGeometry x="160" y="320" width="120" height="120" as="geometry" />
        </mxCell>
        <mxCell id="v8kga1jSf4P2K5tbw9KO-8" style="edgeStyle=orthogonalEdgeStyle;rounded=0;orthogonalLoop=1;jettySize=auto;html=1;exitX=0;exitY=0.5;exitDx=0;exitDy=0;entryX=0.5;entryY=1;entryDx=0;entryDy=0;" edge="1" parent="1" source="v8kga1jSf4P2K5tbw9KO-2" target="v8kga1jSf4P2K5tbw9KO-1">
          <mxGeometry relative="1" as="geometry" />
        </mxCell>
        <mxCell id="v8kga1jSf4P2K5tbw9KO-2" value="Frame Building" style="ellipse;whiteSpace=wrap;html=1;aspect=fixed;fillColor=#dae8fc;strokeColor=#6c8ebf;" vertex="1" parent="1">
          <mxGeometry x="320" y="560" width="120" height="120" as="geometry" />
        </mxCell>
        <mxCell id="v8kga1jSf4P2K5tbw9KO-7" style="edgeStyle=orthogonalEdgeStyle;rounded=0;orthogonalLoop=1;jettySize=auto;html=1;exitX=0;exitY=0.5;exitDx=0;exitDy=0;entryX=0.5;entryY=0;entryDx=0;entryDy=0;" edge="1" parent="1" source="v8kga1jSf4P2K5tbw9KO-3" target="v8kga1jSf4P2K5tbw9KO-1">
          <mxGeometry relative="1" as="geometry" />
        </mxCell>
        <mxCell id="v8kga1jSf4P2K5tbw9KO-3" value="Packages" style="ellipse;whiteSpace=wrap;html=1;aspect=fixed;fillColor=#dae8fc;strokeColor=#6c8ebf;" vertex="1" parent="1">
          <mxGeometry x="320" y="80" width="120" height="120" as="geometry" />
        </mxCell>
        <mxCell id="v8kga1jSf4P2K5tbw9KO-5" style="edgeStyle=orthogonalEdgeStyle;rounded=0;orthogonalLoop=1;jettySize=auto;html=1;exitX=0;exitY=0.5;exitDx=0;exitDy=0;entryX=1;entryY=0.5;entryDx=0;entryDy=0;" edge="1" parent="1" source="v8kga1jSf4P2K5tbw9KO-4" target="v8kga1jSf4P2K5tbw9KO-1">
          <mxGeometry relative="1" as="geometry" />
        </mxCell>
        <mxCell id="v8kga1jSf4P2K5tbw9KO-4" value="State Handling" style="ellipse;whiteSpace=wrap;html=1;aspect=fixed;fillColor=#dae8fc;strokeColor=#6c8ebf;" vertex="1" parent="1">
          <mxGeometry x="320" y="320" width="120" height="120" as="geometry" />
        </mxCell>
        <mxCell id="v8kga1jSf4P2K5tbw9KO-16" style="edgeStyle=orthogonalEdgeStyle;rounded=0;orthogonalLoop=1;jettySize=auto;html=1;exitX=0;exitY=0.5;exitDx=0;exitDy=0;entryX=1;entryY=0.5;entryDx=0;entryDy=0;" edge="1" parent="1" source="v8kga1jSf4P2K5tbw9KO-9" target="v8kga1jSf4P2K5tbw9KO-4">
          <mxGeometry relative="1" as="geometry" />
        </mxCell>
        <mxCell id="v8kga1jSf4P2K5tbw9KO-9" value="Mode Control Flow" style="ellipse;whiteSpace=wrap;html=1;aspect=fixed;fillColor=#ffe6cc;strokeColor=#d79b00;" vertex="1" parent="1">
          <mxGeometry x="480" y="280" width="80" height="80" as="geometry" />
        </mxCell>
        <mxCell id="v8kga1jSf4P2K5tbw9KO-15" style="edgeStyle=orthogonalEdgeStyle;rounded=0;orthogonalLoop=1;jettySize=auto;html=1;exitX=0;exitY=0.5;exitDx=0;exitDy=0;entryX=1;entryY=0.5;entryDx=0;entryDy=0;" edge="1" parent="1" source="v8kga1jSf4P2K5tbw9KO-10" target="v8kga1jSf4P2K5tbw9KO-4">
          <mxGeometry relative="1" as="geometry" />
        </mxCell>
        <mxCell id="v8kga1jSf4P2K5tbw9KO-10" value="Mode Input Tree" style="ellipse;whiteSpace=wrap;html=1;aspect=fixed;fillColor=#ffe6cc;strokeColor=#d79b00;" vertex="1" parent="1">
          <mxGeometry x="480" y="400" width="80" height="80" as="geometry" />
        </mxCell>
        <mxCell id="v8kga1jSf4P2K5tbw9KO-23" style="edgeStyle=orthogonalEdgeStyle;rounded=0;orthogonalLoop=1;jettySize=auto;html=1;exitX=0;exitY=0.5;exitDx=0;exitDy=0;entryX=1;entryY=0.5;entryDx=0;entryDy=0;" edge="1" parent="1" source="v8kga1jSf4P2K5tbw9KO-17" target="v8kga1jSf4P2K5tbw9KO-20">
          <mxGeometry relative="1" as="geometry" />
        </mxCell>
        <mxCell id="v8kga1jSf4P2K5tbw9KO-17" value="Component Builder(s)" style="ellipse;whiteSpace=wrap;html=1;aspect=fixed;fillColor=#e1d5e7;strokeColor=#9673a6;" vertex="1" parent="1">
          <mxGeometry x="600" y="640" width="80" height="80" as="geometry" />
        </mxCell>
        <mxCell id="v8kga1jSf4P2K5tbw9KO-22" style="edgeStyle=orthogonalEdgeStyle;rounded=0;orthogonalLoop=1;jettySize=auto;html=1;exitX=0;exitY=0.5;exitDx=0;exitDy=0;entryX=1;entryY=0.5;entryDx=0;entryDy=0;" edge="1" parent="1" source="v8kga1jSf4P2K5tbw9KO-18" target="v8kga1jSf4P2K5tbw9KO-2">
          <mxGeometry relative="1" as="geometry" />
        </mxCell>
        <mxCell id="v8kga1jSf4P2K5tbw9KO-18" value="&lt;div&gt;Set&lt;/div&gt;Background" style="ellipse;whiteSpace=wrap;html=1;aspect=fixed;fillColor=#ffe6cc;strokeColor=#d79b00;" vertex="1" parent="1">
          <mxGeometry x="480" y="520" width="80" height="80" as="geometry" />
        </mxCell>
        <mxCell id="v8kga1jSf4P2K5tbw9KO-21" style="edgeStyle=orthogonalEdgeStyle;rounded=0;orthogonalLoop=1;jettySize=auto;html=1;exitX=0;exitY=0.5;exitDx=0;exitDy=0;entryX=1;entryY=0.5;entryDx=0;entryDy=0;" edge="1" parent="1" source="v8kga1jSf4P2K5tbw9KO-20" target="v8kga1jSf4P2K5tbw9KO-2">
          <mxGeometry relative="1" as="geometry" />
        </mxCell>
        <mxCell id="v8kga1jSf4P2K5tbw9KO-20" value="Render Cycle" style="ellipse;whiteSpace=wrap;html=1;aspect=fixed;fillColor=#ffe6cc;strokeColor=#d79b00;" vertex="1" parent="1">
          <mxGeometry x="480" y="640" width="80" height="80" as="geometry" />
        </mxCell>
      </root>
    </mxGraphModel>
  </diagram>
</mxfile>
